<svg xmlns="http://www.w3.org/2000/svg" xmlns:xlink="http://www.w3.org/1999/xlink" width="100" height="40" viewBox="0 0 100 40">
    <defs>
        <path id="eh7iphmipa" d="M4 4L36 4 36 36 4 36z"/>
    </defs>
    <g fill="none" fill-rule="evenodd">
        <path fill="#FFF" fill-opacity="0" d="M0 0H100V40H0z"/>
        <path fill="#3F3B3A" d="M82.247 9.05h9.23v1.815h3.297V8.714l-.001-.012c0-.484-.382-.875-.854-.883h-5.336V6.126h-3.45v1.693h-6.181v3.046h3.295V9.049zm12.905 14.19l-1.035-3.475c-.07-.221-.272-.382-.512-.382H90.86l.797 2.67h-3.228V16.88h6.337v-1.23H88.43v-2.435h6.337v-1.23H78.953v1.23h6.336v2.434h-6.336v1.23h6.336v5.172h-6.336v1.23h16.2l-.014-.041h.013zM62.28 6.284l-3.379 7.942h2.593v9.449h2.834V11.14h-1.027l2.135-4.857H62.28zm7.25 6.51c-.107-.219-.327-.37-.583-.371h-2.455l1.913 5.983h2.903l-1.778-5.612zm6.213-6.365h-2.946v3.058h-7.262v1.232h7.262v10.996c-.026.252-.225.448-.476.461h-1.497v1.274h3.818c.605-.024 1.088-.523 1.101-1.14V10.718h1.196V9.486h-1.196V6.428zM57.359 12h-5.66V9.985h6.563V8.73h-6.563V6.176h-2.925c-.321 0-.58.268-.58.597V8.73h-6.517v1.255h6.517V12h-5.5v1.254h10.955s-.607 2.355-3.612 4.887c-2.693-2.026-3.592-3.639-3.592-3.639h-2.94c1.19 2.048 2.879 3.688 4.699 4.988-1.672 1.08-3.84 2.12-6.642 2.952v1.502s4.324-.81 8.503-3.257c4.185 2.428 8.389 3.257 8.389 3.257v-1.422c-2.69-.973-4.822-2.043-6.496-3.075 2.425-1.785 4.55-4.207 5.4-7.447zM48.07 32.068l.49 1.468h1.37l-2.701-7.289h-1.048l-2.693 7.289h1.372l.51-1.468h2.7zm-1.327-3.941l1.014 3.022h-2.065l1.05-3.022zm7.516-1.88v7.29h4.44v-.994H55.58v-6.295h-1.32zm9.28 7.29h1.32v-7.29h-1.32v7.29zm9.52-7.29h-2.85v7.289h1.319v-2.802h1.53c1.423 0 2.417-.923 2.417-2.244 0-1.32-.994-2.242-2.416-2.242zm-.074 3.485H71.53v-2.493h1.457c.733 0 1.17.636 1.17 1.251 0 .602-.41 1.242-1.17 1.242zm10.24 2.336l.488 1.468h1.372l-2.7-7.289h-1.05l-2.692 7.289h1.373l.51-1.468h2.698zm-1.328-3.941l1.015 3.022h-2.066l1.051-3.022zm10.538-1.88l-1.44 3.106-1.46-3.105H88.11l2.222 4.293v2.995h1.31v-2.995l.007-.017 2.214-4.276h-1.426z"/>
        <path fill="#0AE" d="M30.39 23.99C34.96 25.527 36 25.61 36 25.61V9.112C36 6.286 33.714 4 30.888 4H9.112C6.286 4 4 6.286 4 9.112v21.735C4 33.714 6.286 36 9.112 36h21.735C33.714 36 36 33.714 36 30.888v-.332s-8.27-3.45-12.468-5.486c-2.826 3.408-6.441 5.527-10.181 5.527-6.359 0-8.52-5.569-5.528-9.226.665-.79 1.787-1.579 3.491-1.994 2.702-.665 7.024.415 11.055 1.745.706-1.33 1.33-2.826 1.787-4.405H11.688V15.47h6.442v-2.286H10.4v-1.246h7.771V8.696s0-.54.54-.54h3.16v3.782h7.687v1.246H21.87v2.286h6.275c-.581 2.452-1.496 4.738-2.66 6.733 1.912.706 3.616 1.33 4.905 1.787"/>
        <path fill="#0AE" d="M12.062 21.122c-.83.042-2.327.374-3.158 1.08-2.494 2.078-.998 5.902 4.031 5.902 2.91 0 5.818-1.787 8.104-4.655-3.242-1.537-6.026-2.618-8.977-2.327"/>
    </g>
</svg>
