<svg xmlns="http://www.w3.org/2000/svg" xmlns:xlink="http://www.w3.org/1999/xlink" width="40" height="40" viewBox="0 0 40 40">
    <defs>
        <path id="prefix__a" d="M0 0L39.949 0 39.949 39.949 0 39.949z"/>
    </defs>
    <g fill="none" fill-rule="evenodd">
        <mask id="prefix__b" fill="#fff">
            <use xlink:href="#prefix__a"/>
        </mask>
        <path fill="#006FCF" d="M15.071 26.922c.209.272.411.528.603.792.08.109.166.156.304.156 1.195-.005 2.389-.003 3.583-.003.237 0 .239-.002.239-.246v-.967c0-.247 0-.24.24-.249.426-.016.852-.034 1.276-.071.15-.013.295-.083.459-.132.002.063.007.117.007.17 0 .439.003.878-.002 1.316-.002.127.037.18.17.18.783-.003 1.566-.003 2.35 0 .12 0 .17-.048.168-.169-.005-.244-.002-.488-.002-.779.114.136.204.24.292.347.127.155.256.308.376.468.074.098.16.135.283.134.728-.005 1.456-.002 2.183-.002h10.733c.554 0 1.08-.1 1.554-.405.012-.009.029-.01.062-.022v12.271c0 .238 0 .238-.232.238H.235c-.235 0-.235 0-.235-.237V19.879c0-.245 0-.245.244-.246.472 0 .945-.004 1.417.003.133.002.2-.045.245-.169.08-.224.178-.442.262-.665.036-.096.086-.14.195-.137.26.007.522.006.783 0 .105-.002.162.034.2.133.085.228.186.45.269.68.043.118.113.17.236.156.039-.004.078 0 .117 0h14.5c.038 0 .078-.004.116 0 .146.016.196-.047.19-.192-.01-.242-.002-.484-.002-.771.244.3.464.562.674.831.077.098.162.134.284.133 1.233-.003 2.467-.004 3.7.001.156 0 .225-.042.21-.207-.011-.137-.002-.276-.002-.437.054.031.092.05.125.073.472.34 1 .528 1.58.54.855.018 1.71.018 2.564.03.119.002.183-.04.224-.15.085-.229.186-.451.267-.68.039-.11.099-.143.21-.14.25.006.5.006.75 0 .115-.003.181.03.223.146.085.234.178.466.285.691.028.06.118.125.18.125 1.233.008 2.466.005 3.7.007.124 0 .163-.051.16-.17-.005-.289-.001-.577-.001-.916.2.31.386.575.545.856.1.18.224.238.427.234.75-.012 1.5-.009 2.25-.001.17.001.215-.055.215-.22-.005-1.968-.005-3.934 0-5.9 0-.159-.041-.21-.204-.208-.788.008-1.577.004-2.366.004h-.182v1.07c-.058-.075-.088-.109-.112-.147-.146-.223-.306-.439-.43-.674-.108-.207-.25-.26-.477-.255-.738.016-1.477.006-2.216.006-.24 0-.24 0-.24.247 0 .52 0 1.04-.022 1.566l-.614-1.429c-.164-.384-.163-.384-.578-.384-1.4 0-2.8.004-4.2-.002-.734-.004-1.4.185-1.987.636-.016.012-.035.02-.076.044 0-.194-.003-.37.001-.545.003-.101-.038-.143-.138-.134-.038.004-.077 0-.116 0-4.678 0-9.355.002-14.033-.003-.165 0-.245.042-.295.204-.119.38-.258.753-.404 1.17-.067-.183-.122-.33-.174-.477-.09-.25-.182-.5-.262-.753-.035-.11-.092-.143-.204-.143-.983.004-1.967.006-2.95 0-.154-.002-.185.053-.184.192.007.539.003 1.077-.017 1.623-.14-.322-.278-.644-.417-.967-.101-.234-.208-.466-.299-.704-.043-.114-.107-.144-.222-.144-.756.005-1.512.007-2.267 0-.145-.002-.214.043-.27.176C.948 14.522.502 15.556.06 16.59c-.01.024-.021.048-.06.07v-.156V.254C0 0 0 0 .252 0h39.449c.248 0 .248 0 .248.24v21.066c0 .24 0 .24-.246.24-7.883 0-15.766.001-23.649-.003-.173 0-.286.046-.386.19-.173.25-.369.483-.566.738-.215-.278-.422-.537-.618-.804-.067-.091-.141-.122-.252-.122-2.1.003-4.2.003-6.3 0-.141-.001-.19.03-.19.182.006 1.983.005 3.966.001 5.95 0 .145.04.192.187.192 2.089-.004 4.178-.003 6.266 0 .12 0 .195-.046.263-.139.196-.267.4-.53.612-.808" mask="url(#prefix__b)"/>
        <path fill="#006FCF" d="M8.651 17.134c.043-.104.07-.162.091-.221.307-.873.615-1.746.914-2.621.042-.122.1-.163.226-.161.506.006 1.011.006 1.517 0 .132-.001.184.032.183.176-.005 1.445-.005 2.889 0 4.333 0 .145-.05.18-.183.175-.26-.008-.522-.01-.783 0-.152.008-.186-.05-.185-.19.005-1.012.002-2.023.002-3.034v-.196l-.046-.014c-.025.053-.055.104-.075.16-.366 1.022-.734 2.043-1.09 3.069-.056.16-.13.218-.295.206-.205-.014-.412-.013-.617 0-.135.008-.194-.041-.238-.167-.361-1.03-.73-2.057-1.096-3.085-.022-.06-.047-.12-.07-.18l-.044.003c-.005.06-.013.12-.013.18 0 1.017-.003 2.034.003 3.05 0 .15-.035.207-.194.2-.266-.014-.534-.01-.8-.002-.118.003-.152-.04-.152-.155.003-1.455.003-2.91 0-4.366 0-.125.04-.164.163-.163.516.005 1.033.007 1.55 0 .127-.002.185.044.226.162.306.885.619 1.767.93 2.65.017.05.038.097.076.191M35.34 16.99v-.18c0-.833.003-1.666-.003-2.5 0-.139.043-.183.18-.18.267.01.534.008.8.002.117-.003.168.028.167.158-.003 1.455-.003 2.91 0 4.364 0 .125-.04.163-.163.161-.355-.007-.71-.01-1.066.001-.136.004-.21-.045-.28-.155-.558-.88-1.122-1.758-1.684-2.637-.042-.064-.086-.127-.167-.186-.004.061-.01.123-.01.184-.002.871-.004 1.743.002 2.615 0 .14-.042.183-.18.178-.283-.009-.567-.006-.85 0-.105.001-.148-.03-.147-.142.002-1.466.002-2.932 0-4.398 0-.112.043-.144.147-.143.411.004.822-.005 1.233.008.069.002.159.07.2.133.552.846 1.097 1.696 1.644 2.545.04.063.087.123.13.185l.047-.014zM23.78 24.374h1.338c.325-.001.54-.19.55-.477.007-.265-.213-.501-.51-.51-.42-.013-.842-.007-1.264 0-.038.001-.108.064-.109.1-.009.287-.005.575-.005.887m1.811.97l1.513 1.702c-.31 0-.593-.028-.869.007-.407.05-.682-.086-.92-.422-.264-.375-.603-.697-.877-1.066-.184-.247-.408-.178-.659-.176v.721c0 .267-.003.533.002.8.001.099-.031.14-.134.138-.295-.005-.59-.01-.883.001-.148.006-.159-.066-.159-.182.003-.9.002-1.799.002-2.698 0-.539.003-1.077-.003-1.616 0-.131.029-.185.174-.184.86.006 1.721 0 2.582.004.748.005 1.363.533 1.452 1.234.102.806-.301 1.452-1.044 1.675-.047.014-.093.032-.177.062M18.827 16.14c.21 0 .421.004.632 0 .296-.007.508-.208.513-.48.005-.276-.209-.503-.504-.51-.421-.01-.843 0-1.264-.004-.094 0-.126.039-.125.13.004.243.005.487 0 .73-.002.1.03.14.133.137.205-.006.41-.002.615-.002m1.074.966l1.514 1.705c-.483 0-.924.003-1.366-.004-.048-.001-.105-.054-.142-.097-.415-.485-.827-.973-1.24-1.46-.096-.114-.402-.19-.527-.113-.038.022-.057.1-.057.154-.005.444-.008.888 0 1.332.003.141-.03.199-.183.192-.266-.012-.533-.008-.8-.001-.118.003-.169-.027-.169-.157.004-1.454.004-2.909 0-4.364 0-.123.043-.163.165-.162.872.005 1.743-.003 2.615.01.766.01 1.328.54 1.409 1.304.081.768-.313 1.37-1.05 1.6-.046.016-.092.034-.169.06M12.405 16.477c0-.722.003-1.445-.003-2.167 0-.14.045-.18.181-.179 1.15.004 2.3.004 3.45 0 .134 0 .19.034.183.178-.011.221-.012.444 0 .666.007.147-.053.175-.184.174-.756-.005-1.511.003-2.267-.006-.173-.002-.227.055-.213.22.01.132.008.266 0 .399-.008.135.038.183.18.182.733-.006 1.466-.003 2.2-.003.214 0 .214 0 .214.222 0 .205-.007.411.003.616.006.134-.04.171-.172.17-.738-.005-1.477.002-2.216-.005-.16-.002-.221.044-.21.206.012.155.008.31.002.466-.005.123.044.162.166.16.762-.004 1.523.004 2.284-.006.169-.002.225.043.213.214-.015.221-.011.445 0 .666.007.142-.053.165-.177.165-1.156-.004-2.311-.004-3.467 0-.134.001-.17-.042-.17-.171.006-.723.003-1.445.003-2.167M28.513 26.008h.287c.722 0 1.444.004 2.166-.004.15-.001.192.046.186.19-.011.239-.006.478-.002.717.002.1-.034.137-.136.136-1.177-.002-2.354-.002-3.532 0-.11.001-.143-.04-.142-.146.002-1.46.002-2.92-.001-4.382 0-.12.046-.15.157-.149 1.167.003 2.333.003 3.5 0 .113 0 .158.033.155.151-.007.228-.01.456 0 .683.006.138-.038.182-.178.18-.755-.005-1.51.001-2.266-.005-.15-.001-.211.038-.197.196.013.143.014.29 0 .432-.016.163.056.196.2.195.706-.005 1.411-.002 2.116-.002.256 0 .256 0 .256.25 0 .183-.01.367.003.549.01.153-.05.185-.191.184-.728-.006-1.456.002-2.183-.007-.163-.002-.212.047-.201.206.013.198.003.398.003.626M9.746 26.008h.218c.744 0 1.489.004 2.233-.004.15-.001.193.045.186.19-.01.239-.006.478-.001.717.002.1-.034.137-.136.136-1.178-.002-2.355-.002-3.533 0-.113.001-.141-.043-.14-.148.001-1.46.002-2.922-.001-4.383 0-.108.035-.146.144-.146 1.172.003 2.344.003 3.516 0 .12 0 .153.044.15.157-.006.233-.008.467 0 .7.006.13-.049.158-.166.157-.761-.004-1.523.001-2.284-.005-.144-.001-.201.037-.189.187.013.15.013.3 0 .45-.013.153.053.187.193.186.716-.005 1.433-.002 2.15-.002.227 0 .227 0 .227.227 0 .189-.008.378.003.566.009.145-.036.192-.185.19-.728-.007-1.456.002-2.183-.006-.16-.002-.217.038-.205.202.014.198.003.399.003.629M2.78 15.237l-.056.008-.637 1.583h1.337l-.643-1.59m2.764 3.574c-.434 0-.827.004-1.22-.005-.047 0-.113-.064-.135-.113-.106-.238-.201-.48-.296-.723-.035-.088-.084-.128-.185-.127-.638.004-1.277 0-1.915.007-.057 0-.142.059-.167.112-.105.232-.195.47-.285.709-.038.1-.091.146-.208.144-.365-.008-.73-.003-1.118-.003.022-.064.035-.11.054-.153.622-1.456 1.247-2.912 1.865-4.37.053-.125.121-.162.25-.16.394.008.789.01 1.182 0 .134-.003.198.045.248.164.568 1.336 1.14 2.67 1.71 4.004l.22.514M29.656 16.83l-.647-1.596-.052.007-.64 1.59h1.34zm2.107 1.983c-.416 0-.804.004-1.192-.006-.052 0-.126-.062-.15-.114-.105-.232-.2-.47-.29-.707-.04-.102-.094-.144-.209-.143-.627.006-1.255.005-1.883 0-.106 0-.158.037-.194.135-.089.24-.185.475-.286.71-.02.048-.074.117-.114.118-.393.01-.785.006-1.199.006.026-.073.041-.125.062-.174.62-1.448 1.242-2.895 1.858-4.345.052-.123.116-.165.246-.162.406.007.811.005 1.217 0 .102 0 .16.032.201.13.628 1.475 1.26 2.947 1.89 4.42.015.035.024.072.043.132zM39.965 22.38c-.146.327-.278.636-.424.939-.02.039-.112.06-.17.06-.622.005-1.244.002-1.866.004-.18 0-.328.065-.411.232-.077.154-.065.325.063.428.108.086.265.143.403.15.421.021.844.006 1.265.014.55.01 1.014.325 1.16.815.274.911-.149 1.89-1.262 1.995-.176.017-.353.027-.53.028-.66.003-1.322-.002-1.982.004-.129 0-.18-.032-.173-.168.01-.239.008-.478 0-.717-.005-.127.044-.16.165-.158.766.004 1.532.003 2.298.001.266 0 .44-.201.403-.456-.028-.195-.192-.334-.412-.337-.394-.004-.79.016-1.182-.008-.233-.014-.474-.065-.69-.151-.444-.178-.664-.55-.709-1.009-.096-1.004.527-1.673 1.54-1.674h2.331c.053 0 .107.004.183.008M35.647 22.38c-.148.331-.279.636-.423.934-.02.04-.11.065-.167.065-.622.005-1.244 0-1.866.004-.305.002-.476.188-.443.472.024.21.201.34.477.344.41.005.822-.008 1.232.009 1 .04 1.403.748 1.268 1.582-.122.757-.567 1.163-1.337 1.222-.585.045-1.174.026-1.762.034-.244.003-.489-.006-.733.002-.126.005-.165-.042-.161-.163.006-.233.008-.467-.001-.7-.005-.137.04-.181.18-.18.738.006 1.477-.005 2.215.007.255.004.454-.13.468-.385.013-.246-.183-.413-.476-.414-.378-.001-.756.01-1.133-.003-.447-.015-.862-.13-1.142-.512-.484-.659-.347-1.87.66-2.217.19-.065.4-.101.6-.104.789-.012 1.577-.005 2.366-.005.049 0 .098.005.178.008M18.98 24.474h1.363c.326 0 .539-.201.555-.516.015-.3-.199-.558-.509-.57-.432-.017-.866-.007-1.3 0-.036 0-.103.056-.104.088-.007.325-.004.652-.004.998m-.002 1.039v1.15c0 .383 0 .383-.385.383-.21 0-.422-.005-.632.002-.113.003-.157-.03-.157-.15.003-1.46.003-2.92 0-4.379 0-.121.046-.15.157-.149.883.003 1.765-.004 2.648.004.795.007 1.412.635 1.441 1.43.023.61-.16 1.113-.693 1.452-.294.188-.627.247-.967.254-.46.01-.92.003-1.412.003M12.54 22.373c.486 0 .934-.004 1.382.006.056 0 .122.068.163.12.304.39.603.783.905 1.174.032.043.07.081.12.136.248-.323.515-.61.713-.94.243-.404.55-.575 1.02-.504.242.037.494.007.784.007-.208.26-.388.49-.57.716-.394.488-.785.979-1.185 1.462-.086.104-.074.17.005.268.554.687 1.102 1.379 1.652 2.07.033.041.064.085.118.158-.324 0-.62-.03-.906.007-.4.05-.662-.086-.873-.428-.2-.325-.458-.613-.692-.917-.03-.038-.063-.073-.107-.124-.064.078-.122.144-.175.213-.286.375-.573.75-.854 1.129-.061.083-.125.124-.233.122-.41-.006-.82-.002-1.272-.002.113-.145.204-.265.298-.383.479-.598.954-1.199 1.441-1.789.11-.132.094-.215-.005-.336-.548-.677-1.09-1.36-1.635-2.04-.024-.03-.046-.06-.094-.125M26.162 17.774c-.163.352-.306.669-.458.981-.015.032-.082.057-.124.055-1.037-.041-1.929-.523-2.11-1.842-.082-.596-.055-1.184.227-1.734.358-.698.957-1.034 1.713-1.088.48-.035.965-.007 1.448-.014.122-.002.168.038.164.162-.007.239-.007.478 0 .716.004.127-.033.177-.17.173-.332-.009-.665.005-.998-.004-.993-.027-1.335.706-1.26 1.484.015.147.05.296.1.435.144.397.532.665.962.675.154.004.309 0 .506 0M22.814 16.48c0 .722-.003 1.443.002 2.164.001.131-.036.176-.17.171-.254-.01-.51-.002-.765-.002-.214 0-.214 0-.214-.223v-3.845c0-.155.004-.31-.001-.466-.004-.107.037-.149.145-.147.283.005.566.007.849 0 .13-.004.156.052.156.168-.004.727-.002 1.454-.002 2.18" mask="url(#prefix__b)"/>
        <path fill="#FFF" d="M23.78 24.374c0-.312-.004-.6.005-.887.001-.036.07-.099.11-.1.42-.007.842-.013 1.263 0 .297.009.517.245.51.51-.01.287-.225.476-.55.477H23.78M18.827 16.14c-.205 0-.41-.003-.615.003-.103.003-.135-.037-.133-.136.005-.244.004-.488 0-.732 0-.09.03-.13.125-.129.421.003.843-.005 1.264.004.295.007.51.234.504.51-.005.272-.217.473-.513.48-.21.004-.421 0-.632 0zM2.78 15.237l.644 1.59H2.087l.637-1.582.057-.008M29.656 16.83h-1.34l.641-1.59.052-.006.647 1.596M18.98 24.474c0-.346-.002-.673.005-.998.001-.032.068-.088.105-.089.433-.006.867-.016 1.3 0 .31.013.523.272.508.57-.016.316-.23.516-.555.517h-1.362" mask="url(#prefix__b)"/>
    </g>
</svg>
