<svg xmlns="http://www.w3.org/2000/svg" width="65" height="40" viewBox="0 0 65 40">
    <g fill="none" fill-rule="evenodd">
        <path fill="#000" d="M49.888 39.35v.103h.095c.022 0 .04-.004.053-.013.012-.008.019-.022.019-.04 0-.016-.007-.03-.02-.038-.012-.008-.03-.013-.052-.013h-.095zm.097-.073c.05 0 .087.01.114.033.028.022.04.052.04.09 0 .032-.01.06-.031.08-.022.021-.052.034-.092.039l.127.146h-.1l-.117-.146h-.038v.146h-.082v-.388h.179zm-.026.521c.046 0 .088-.009.127-.026.039-.017.073-.04.102-.07.03-.029.052-.063.07-.103.016-.04.024-.082.024-.127 0-.044-.008-.087-.025-.127-.017-.04-.04-.074-.069-.103-.03-.03-.063-.052-.102-.069-.04-.017-.08-.025-.127-.025-.045 0-.088.008-.128.025-.04.017-.074.04-.104.07-.03.028-.052.063-.069.102-.017.04-.025.083-.025.127 0 .045.008.088.025.127.017.04.04.074.07.104.029.029.063.052.103.07.04.016.083.025.128.025zm0-.743c.06 0 .115.01.166.032.052.022.097.052.135.09.039.038.07.082.092.133.022.05.033.105.033.162 0 .058-.011.112-.033.162-.023.05-.053.095-.092.132-.038.038-.083.069-.135.09-.051.023-.107.034-.166.034-.06 0-.116-.011-.168-.033-.052-.022-.097-.053-.135-.09-.039-.038-.069-.082-.09-.133-.023-.05-.034-.104-.034-.162 0-.057.011-.111.033-.162.022-.05.052-.095.09-.133.039-.038.084-.068.136-.09.052-.022.109-.032.168-.032zm-6.32-3.69c.185 0 .448.034.65.113l-.281.86c-.193-.078-.387-.105-.57-.105-.598 0-.896.386-.896 1.08v2.353h-.913v-4.197h.905v.51c.236-.369.578-.615 1.105-.615zm-3.16.938h-1.492V38.2c0 .421.15.701.606.701.237 0 .536-.078.808-.237l.263.782c-.29.202-.746.325-1.141.325-1.08 0-1.457-.58-1.457-1.554v-1.914h-.852v-.834h.852v-1.273h.921v1.273h1.493v.834zm-4.386.237c-.255-.158-.773-.36-1.308-.36-.5 0-.8.185-.8.492 0 .281.317.36.712.413l.43.06c.913.133 1.466.519 1.466 1.257 0 .798-.702 1.369-1.914 1.369-.684 0-1.316-.176-1.817-.544l.43-.711c.307.237.764.439 1.396.439.624 0 .957-.185.957-.51 0-.237-.237-.369-.737-.439l-.43-.061c-.94-.132-1.449-.553-1.449-1.238 0-.834.685-1.343 1.747-1.343.667 0 1.273.15 1.712.439l-.395.737zm-6.97.659c.097-.606.465-1.018 1.115-1.018.588 0 .965.368 1.062 1.018h-2.177zm3.125.368c-.009-1.307-.816-2.203-1.993-2.203-1.229 0-2.089.896-2.089 2.203 0 1.334.895 2.204 2.15 2.204.633 0 1.212-.158 1.721-.588l-.447-.676c-.351.28-.8.439-1.22.439-.589 0-1.124-.272-1.256-1.027h3.117c.008-.115.017-.229.017-.352zm14.567-1.345c-.187 0-.36.033-.521.099-.16.066-.3.158-.416.276-.117.118-.21.26-.276.425-.068.165-.101.347-.101.545 0 .199.033.381.1.546.067.165.16.307.277.425.117.119.256.21.416.276.16.066.334.099.521.099.188 0 .361-.033.522-.1.16-.065.3-.156.418-.275.118-.118.212-.26.278-.425.068-.165.101-.347.101-.546 0-.198-.033-.38-.1-.545-.067-.165-.16-.307-.279-.425-.118-.118-.258-.21-.418-.276-.16-.066-.334-.099-.522-.099zm0-.863c.325 0 .625.056.901.169.276.112.515.267.716.464.202.198.36.43.473.699.114.269.171.561.171.876 0 .316-.057.608-.17.876-.114.27-.272.502-.474.7-.201.197-.44.351-.716.464-.276.112-.576.17-.9.17-.325 0-.625-.058-.9-.17-.277-.113-.515-.267-.715-.464-.2-.198-.358-.43-.471-.7-.114-.268-.171-.56-.171-.876 0-.315.057-.607.171-.876.113-.269.27-.501.47-.699.2-.197.439-.352.715-.464.276-.113.576-.169.9-.169zm-22.932 2.208c0-.737.483-1.343 1.273-1.343.755 0 1.264.58 1.264 1.343 0 .764-.51 1.344-1.264 1.344-.79 0-1.273-.606-1.273-1.344zm3.397 0V35.47h-.913v.51c-.29-.378-.728-.615-1.325-.615-1.177 0-2.098.922-2.098 2.203 0 1.282.921 2.204 2.098 2.204.597 0 1.036-.237 1.325-.615v.51h.913v-2.099zm-5.144 2.099v-2.634c0-.992-.632-1.66-1.65-1.668-.536-.009-1.09.158-1.475.746-.29-.465-.746-.746-1.387-.746-.448 0-.887.132-1.23.624v-.519h-.912v4.197h.921v-2.327c0-.728.404-1.115 1.028-1.115.605 0 .913.395.913 1.106v2.336h.921v-2.327c0-.728.422-1.115 1.027-1.115.624 0 .922.395.922 1.106v2.336h.922z"/>
        <path d="M0 0H65V40H0z"/>
        <path fill="#7673C0" d="M25.335 28.326L39.181 28.326 39.181 3.444 25.335 3.444z"/>
        <path fill="#EB001B" d="M26.214 15.885c0-5.048 2.364-9.544 6.044-12.441C29.567 1.324 26.171.06 22.48.06 13.741.06 6.656 7.145 6.656 15.885c0 8.739 7.085 15.824 15.823 15.824 3.692 0 7.088-1.264 9.78-3.384-3.681-2.897-6.045-7.393-6.045-12.44"/>
        <path fill="#00A1DF" d="M57.367 25.69v-.614h-.16l-.185.422-.184-.422h-.16v.614h.112v-.463l.173.4h.118l.172-.401v.464h.114zm-1.016 0v-.51h.205v-.103h-.523v.104h.206v.51h.112zM57.86 15.885c0 8.739-7.084 15.824-15.822 15.824-3.692 0-7.088-1.264-9.78-3.384 3.681-2.897 6.044-7.393 6.044-12.44 0-5.048-2.363-9.544-6.044-12.441C34.95 1.324 38.346.06 42.038.06c8.738 0 15.823 7.085 15.823 15.825"/>
    </g>
</svg>
