<svg xmlns="http://www.w3.org/2000/svg" width="65" height="40" viewBox="0 0 65 40">
    <g fill="none" fill-rule="evenodd">
        <path d="M0 0H65V40H0z"/>
        <path fill="#231F20" d="M17.732 37.574c.041-.7.642-1.235 1.343-1.194.7.042 1.234.643 1.193 1.343-.04.669-.592 1.192-1.261 1.196-.697.013-1.273-.54-1.286-1.237-.001-.036 0-.072.002-.108h.009zm3.402 0v-2.101h-.914v.51c-.315-.406-.806-.635-1.319-.616-1.214 0-2.198.984-2.198 2.197 0 1.215.984 2.198 2.198 2.198.513.02 1.004-.21 1.319-.615v.51h.914v-2.083zm30.87 0c.042-.7.643-1.235 1.343-1.194.7.042 1.235.643 1.194 1.343-.04.669-.592 1.192-1.262 1.196-.697.009-1.269-.549-1.277-1.246 0-.033 0-.066.002-.1zm4.835 1.784v.106h.097c.017.005.036.005.053 0 .006-.013.006-.027 0-.04.006-.012.006-.027 0-.04-.017-.005-.036-.005-.053 0l-.097-.026zm.097-.074c.041-.002.081.01.114.035.028.022.043.057.04.092.001.03-.01.058-.03.079-.026.023-.059.037-.093.04l.127.144h-.1l-.12-.144h-.039v.144h-.083v-.386l.184-.004zm-.026.523c.043 0 .087-.01.127-.027.038-.017.072-.04.101-.07.114-.124.114-.315 0-.44-.029-.03-.063-.053-.1-.07-.04-.017-.085-.026-.128-.026-.044 0-.087.009-.128.026-.04.016-.075.04-.105.07-.114.125-.114.316 0 .44.03.03.066.054.105.07.045.02.093.028.141.027h-.013zm0-.743c.057-.001.114.01.167.03.05.021.097.05.136.089.039.037.07.082.092.131.046.104.046.222 0 .326-.022.049-.053.093-.092.132-.04.037-.086.067-.136.087-.052.024-.11.036-.167.035-.17-.001-.324-.1-.396-.254-.044-.104-.044-.222 0-.326.023-.049.054-.094.093-.131.04-.038.086-.068.136-.088.057-.023.119-.034.18-.031h-.013zm-1.525-1.49v-3.79h-.88v2.199c-.315-.406-.805-.635-1.318-.616-1.214 0-2.198.984-2.198 2.197 0 1.215.984 2.198 2.198 2.198.513.02 1.003-.21 1.318-.615v.51h.88v-2.083zm-22.906-1.39c.575-.012 1.051.445 1.064 1.02h-2.198c.033-.587.53-1.04 1.116-1.02h.018zm0-.817c-1.214.017-2.184 1.015-2.167 2.229.017 1.214 1.015 2.184 2.229 2.166.632.033 1.254-.17 1.745-.57l-.44-.678c-.347.279-.777.433-1.222.44-.628.054-1.185-.402-1.257-1.029h3.12v-.351c0-1.319-.817-2.198-1.995-2.198l-.013-.01zm11.033 2.197c.041-.7.643-1.234 1.343-1.192.7.04 1.235.642 1.193 1.342-.04.67-.591 1.192-1.261 1.196-.697.009-1.269-.549-1.277-1.246 0-.033 0-.066.002-.1zm3.403 0v-2.091H46v.51c-.315-.406-.805-.635-1.318-.616-1.214 0-2.198.984-2.198 2.197 0 1.215.984 2.198 2.198 2.198.513.02 1.003-.21 1.318-.615v.51h.915v-2.093zm-8.563 0c-.044 1.173.872 2.157 2.044 2.2.065.003.131.002.197-.002.55.028 1.089-.15 1.512-.5l-.44-.739c-.315.241-.7.374-1.098.378-.743-.06-1.296-.711-1.236-1.454.053-.66.577-1.183 1.236-1.236.397.004.783.137 1.099.378l.44-.738c-.424-.35-.964-.53-1.513-.502-1.17-.066-2.173.83-2.24 2-.003.066-.004.132-.001.198v.017zm11.78-2.197c-.454-.014-.88.223-1.108.616v-.51h-.905v4.201h.914V37.32c0-.695.3-1.082.879-1.082.196-.002.39.033.571.106l.282-.88c-.209-.074-.429-.113-.65-.114l.017.018zm-24.488.44c-.517-.308-1.113-.46-1.714-.44-1.064 0-1.759.51-1.759 1.345 0 .686.51 1.108 1.45 1.24l.44.061c.502.07.739.202.739.44 0 .325-.334.51-.958.51-.502.014-.995-.14-1.398-.44l-.44.712c.533.372 1.17.563 1.82.545 1.213 0 1.917-.571 1.917-1.372 0-.8-.554-1.124-1.469-1.256l-.44-.062c-.395-.053-.711-.132-.711-.413 0-.282.299-.492.8-.492.463.005.917.13 1.318.36l.405-.739zm11.789-.44c-.454-.014-.88.223-1.108.616v-.51h-.905v4.201h.914V37.32c0-.695.299-1.082.88-1.082.195-.002.389.033.57.106l.282-.88c-.209-.074-.429-.113-.65-.114l.017.018zm-7.798.106h-1.503v-1.276h-.923v1.276h-.835v.835h.852v1.934c0 .976.378 1.556 1.46 1.556.404 0 .8-.111 1.142-.326l-.263-.782c-.246.146-.524.228-.809.238-.44 0-.607-.282-.607-.704v-1.916h1.495l-.009-.835zm-13.657 4.201v-2.637c.06-.862-.59-1.61-1.453-1.669-.067-.004-.133-.005-.2-.001-.591-.039-1.157.248-1.477.747-.29-.484-.823-.771-1.389-.747-.492-.025-.96.213-1.23.624v-.518h-.915v4.201h.923v-2.311c-.073-.54.304-1.035.842-1.11.062-.008.124-.01.187-.007.606 0 .914.396.914 1.108v2.338h.923v-2.33c-.07-.54.31-1.038.852-1.109.059-.007.118-.01.177-.007.624 0 .923.396.923 1.108v2.338l.923-.018z"/>
        <path fill="#FF5F00" d="M25.341 28.334L39.187 28.334 39.187 3.451 25.341 3.451z"/>
        <path fill="#EB001B" d="M26.22 15.894c-.006-4.856 2.223-9.445 6.044-12.443-6.872-5.4-16.82-4.208-22.22 2.663-5.4 6.872-4.208 16.82 2.664 22.22 5.739 4.51 13.817 4.51 19.556 0-3.82-2.998-6.048-7.585-6.044-12.44"/>
        <path fill="#F79E1B" d="M57.868 15.894c0 8.74-7.085 15.825-15.824 15.824-3.548 0-6.992-1.191-9.78-3.384 6.871-5.4 8.064-15.348 2.664-22.22-.78-.99-1.673-1.885-2.664-2.663 6.87-5.402 16.818-4.211 22.22 2.66 2.192 2.788 3.384 6.232 3.384 9.78v.003zM57.371 25.697v-.615h-.158l-.184.44-.185-.44h-.14v.615h.113v-.462l.172.4h.118l.172-.4v.466l.092-.004zm-1.015 0v-.51h.206v-.105h-.522v.105h.224v.51h.092z"/>
    </g>
</svg>
