<svg xmlns="http://www.w3.org/2000/svg" width="117" height="32" viewBox="0 0 117 32">
    <g fill="none" fill-rule="evenodd">
        <path fill="#32364E" d="M4.683 0H111.61c2.586 0 4.683 2.096 4.683 4.683v22.634c0 2.587-2.097 4.683-4.683 4.683H4.683C2.096 32 0 29.904 0 27.317V4.683C0 2.096 2.096 0 4.683 0z"/>
        <path fill="#FFF" d="M55.73 20.78h-1.142l.884-2.182-1.759-4.437h1.206l1.105 3.02 1.114-3.02h1.206l-2.615 6.62zm-4.383-1.905c-.396 0-.801-.147-1.17-.433v.322H49v-6.619h1.178v2.33c.368-.276.773-.424 1.169-.424 1.234 0 2.08.994 2.08 2.412 0 1.417-.846 2.412-2.08 2.412zm-.248-3.812c-.323 0-.645.139-.921.415v1.97c.276.276.598.414.92.414.663 0 1.124-.57 1.124-1.4 0-.827-.46-1.399-1.123-1.399zm-6.869 3.38c-.359.285-.764.432-1.169.432-1.225 0-2.08-.995-2.08-2.412 0-1.418.855-2.412 2.08-2.412.405 0 .81.148 1.17.424v-2.33h1.187v6.62H44.23v-.323zm0-2.965c-.267-.276-.589-.415-.911-.415-.672 0-1.132.572-1.132 1.4 0 .829.46 1.4 1.132 1.4.322 0 .644-.139.911-.415v-1.97zm-7.015 1.307c.074.7.626 1.179 1.4 1.179.423 0 .893-.157 1.371-.433v.985c-.525.24-1.049.359-1.565.359-1.39 0-2.366-1.013-2.366-2.449 0-1.39.958-2.375 2.274-2.375 1.206 0 2.025.948 2.025 2.302 0 .129 0 .275-.018.432h-3.12zm1.068-1.822c-.57 0-1.012.423-1.068 1.058h2.007c-.037-.626-.415-1.058-.94-1.058zm-4.17.726v3.075h-1.179v-4.603h1.179v.46c.33-.368.736-.57 1.131-.57.13 0 .259.01.388.046v1.05c-.13-.038-.277-.055-.415-.055-.386 0-.8.211-1.104.597zm-5.258 1.096c.075.7.626 1.179 1.4 1.179.424 0 .893-.157 1.372-.433v.985c-.525.24-1.05.359-1.566.359-1.39 0-2.365-1.013-2.365-2.449 0-1.39.957-2.375 2.273-2.375 1.207 0 2.026.948 2.026 2.302 0 .129 0 .275-.018.432h-3.122zm1.068-1.822c-.57 0-1.012.423-1.068 1.058h2.008c-.038-.626-.415-1.058-.94-1.058zm-5.183 3.801l-.939-3.13-.93 3.13h-1.059l-1.583-4.603h1.178l.93 3.13.93-3.13h1.068l.93 3.13.93-3.13h1.177l-1.574 4.603H24.74zm-7.2.11c-1.39 0-2.374-1.002-2.374-2.411 0-1.418.985-2.412 2.375-2.412 1.39 0 2.365.994 2.365 2.412 0 1.409-.975 2.412-2.365 2.412zm0-3.838c-.69 0-1.168.58-1.168 1.427 0 .847.478 1.427 1.169 1.427.681 0 1.16-.58 1.16-1.427 0-.847-.479-1.427-1.16-1.427zm-5.173 1.455h-1.06v2.273H10.13v-6.333h2.237c1.288 0 2.209.837 2.209 2.035 0 1.196-.92 2.025-2.21 2.025zm-.166-3.103h-.893v2.145h.893c.681 0 1.16-.432 1.16-1.067 0-.645-.479-1.078-1.16-1.078zM106.792 17.068h-5.659c.129 1.355 1.122 1.753 2.248 1.753 1.148 0 2.052-.24 2.84-.639v2.33c-.786.434-1.822.748-3.204.748-2.816 0-4.789-1.763-4.789-5.25 0-2.943 1.674-5.281 4.424-5.281 2.746 0 4.179 2.337 4.179 5.298 0 .279-.026.885-.04 1.04zm-4.159-3.982c-.722 0-1.525.545-1.525 1.848h2.988c0-1.301-.752-1.848-1.463-1.848zm-8.99 8.174c-1.01 0-1.629-.426-2.044-.73l-.006 3.27-2.89.615-.002-13.494h2.546l.15.715c.4-.374 1.131-.907 2.265-.907 2.03 0 3.942 1.828 3.942 5.194 0 3.673-1.892 5.337-3.96 5.337zm-.672-7.97c-.664 0-1.08.242-1.38.572l.016 4.296c.28.304.686.549 1.364.549 1.068 0 1.785-1.164 1.785-2.72 0-1.513-.728-2.698-1.785-2.698zm-8.353-2.369h2.902v10.133h-2.902V10.92zm0-3.235l2.902-.617v2.355l-2.902.616V7.686zm-2.998 6.499v6.869h-2.89V10.92h2.5l.182.855c.676-1.244 2.028-.992 2.412-.854v2.657c-.367-.119-1.52-.292-2.204.606zm-6.1 3.314c0 1.703 1.823 1.173 2.194 1.025v2.353c-.386.212-1.084.383-2.03.383-1.715 0-3.002-1.263-3.002-2.975l.013-9.274 2.822-.6.002 2.51h2.196v2.465h-2.196V17.5zm-3.508.493c0 2.08-1.656 3.268-4.06 3.268-.997 0-2.087-.193-3.161-.656v-2.76c.97.528 2.206.924 3.164.924.644 0 1.109-.174 1.109-.708 0-1.38-4.395-.86-4.395-4.06 0-2.047 1.563-3.271 3.908-3.271.957 0 1.915.147 2.873.529v2.722c-.88-.474-1.996-.744-2.876-.744-.605 0-.981.175-.981.627 0 1.3 4.419.682 4.419 4.129z"/>
    </g>
</svg>
