<svg xmlns="http://www.w3.org/2000/svg" width="64" height="40" viewBox="0 0 64 40">
    <g fill="none" fill-rule="evenodd">
        <g fill-rule="nonzero">
            <path fill="#E21836" d="M12.533 0h15.975c2.23 0 3.616 1.816 3.096 4.051l-7.437 31.904C23.642 38.182 21.41 40 19.178 40H3.206C.979 40-.411 38.182.109 35.955L7.55 4.05C8.07 1.816 10.301 0 12.533 0"/>
            <path fill="#00447C" d="M27.178 0h18.37c2.23 0 1.224 1.816.7 4.051l-7.436 31.904C38.29 38.182 38.453 40 36.219 40h-18.37c-2.234 0-3.617-1.818-3.092-4.045L22.193 4.05C22.72 1.816 24.947 0 27.178 0"/>
            <path fill="#007B84" d="M44.82 0h15.974c2.233 0 3.62 1.816 3.095 4.051l-7.436 31.904C55.928 38.182 53.694 40 51.462 40H35.495c-2.234 0-3.62-1.818-3.097-4.045L39.835 4.05C40.355 1.816 42.585 0 44.82 0"/>
            <path fill="#FEFEFE" d="M16.705 10.224c-1.642.017-2.127 0-2.282-.036-.06.282-1.169 5.392-1.172 5.396-.238 1.033-.412 1.77-1.002 2.246-.335.277-.726.41-1.179.41-.728 0-1.153-.361-1.224-1.047l-.014-.235s.222-1.385.222-1.392c0 0 1.164-4.656 1.372-5.272.011-.035.014-.053.017-.07-2.265.02-2.666 0-2.694-.036-.015.05-.071.338-.071.338L7.49 15.774l-.102.445-.197 1.456c0 .432.085.784.254 1.082.54.945 2.085 1.087 2.958 1.087 1.125 0 2.18-.24 2.894-.675 1.238-.731 1.562-1.874 1.85-2.89l.135-.52s1.198-4.836 1.402-5.465c.008-.035.01-.053.021-.07zm4.078 3.901c-.289 0-.817.07-1.291.302-.172.089-.335.19-.507.292l.155-.559-.085-.094c-1.005.203-1.23.23-2.16.361l-.077.052c-.108.894-.204 1.566-.604 3.322-.152.647-.31 1.301-.469 1.947l.043.082c.952-.05 1.241-.05 2.069-.037l.067-.072c.105-.539.118-.665.351-1.754.11-.517.338-1.652.45-2.056.207-.096.411-.19.606-.19.463 0 .407.404.389.565-.02.27-.189 1.154-.362 1.912l-.116.49c-.08.36-.169.712-.25 1.07l.036.072c.938-.05 1.224-.05 2.026-.037l.094-.072c.145-.84.187-1.066.444-2.29l.13-.561c.25-1.1.377-1.658.187-2.113-.201-.509-.683-.632-1.126-.632zm4.555 1.152c-.499.096-.817.16-1.133.2-.313.05-.619.096-1.101.163l-.038.035-.035.028c-.05.358-.085.668-.152 1.033-.056.377-.143.805-.285 1.42-.11.472-.166.636-.228.802-.06.165-.128.326-.25.79l.028.043.024.039c.45-.022.746-.037 1.049-.04.302-.01.615 0 1.1.003l.043-.034.046-.039c.07-.417.08-.53.123-.734.042-.218.116-.52.295-1.33.085-.379.18-.758.268-1.145.091-.386.187-.766.278-1.146l-.014-.046-.018-.042zm.01-1.553c-.452-.267-1.248-.183-1.783.187-.534.361-.595.875-.143 1.146.445.26 1.244.182 1.775-.19.532-.37.599-.879.152-1.143zm2.742 6.19c.917 0 1.856-.253 2.564-1.002.544-.608.794-1.512.88-1.884.282-1.234.063-1.81-.213-2.161-.418-.535-1.157-.707-1.924-.707-.46 0-1.558.046-2.416.836-.616.57-.9 1.343-1.073 2.085-.173.755-.372 2.115.88 2.621.386.166.943.212 1.302.212zm-.072-2.777c.211-.934.461-1.719 1.098-1.719.5 0 .535.584.313 1.521-.04.209-.222.982-.468 1.312-.172.243-.376.39-.6.39-.068 0-.466 0-.472-.59-.003-.292.056-.59.129-.914zm5.808 2.656l.072-.072c.102-.538.118-.665.343-1.754.113-.517.346-1.652.455-2.056.207-.096.408-.19.609-.19.46 0 .404.404.386.565-.017.27-.186 1.153-.362 1.912l-.11.489c-.083.362-.174.713-.255 1.071l.035.072c.942-.05 1.217-.05 2.023-.037l.097-.072c.142-.841.18-1.066.444-2.289l.127-.563c.252-1.1.38-1.657.193-2.112-.207-.509-.692-.632-1.129-.632-.289 0-.82.07-1.291.303-.169.088-.338.19-.504.291l.145-.559-.078-.094c-1.005.204-1.235.23-2.162.362l-.072.051c-.112.894-.204 1.565-.604 3.322-.152.648-.31 1.301-.468 1.947l.042.082c.954-.05 1.239-.05 2.064-.037zm6.918.037c.059-.289.41-2 .413-2 0 0 .3-1.255.318-1.3 0 0 .094-.131.189-.183h.138c1.308 0 2.785 0 3.942-.851.788-.584 1.327-1.445 1.567-2.493.062-.256.108-.562.108-.867 0-.401-.08-.798-.313-1.108-.59-.825-1.766-.84-3.123-.847l-.669.007c-1.737.021-2.433.015-2.72-.02-.024.126-.07.351-.07.351s-.621 2.881-.621 2.886l-1.56 6.414c1.517-.018 2.139-.018 2.4.01zm1.152-5.118l.659-2.865.021-.147.01-.113.264.028 1.396.12c.539.208.76.744.606 1.445-.142.64-.557 1.178-1.091 1.438-.44.22-.978.238-1.533.238h-.359l.027-.144zm4.12 2.478c-.176.745-.377 2.105.869 2.59.397.169.753.219 1.115.2.382-.02.736-.212 1.063-.487l-.088.34.056.073c.896-.038 1.174-.038 2.145-.03l.088-.068c.141-.832.275-1.64.643-3.233.18-.763.359-1.519.543-2.278l-.029-.084c-1.002.186-1.27.225-2.234.362l-.073.06-.03.225c-.15-.242-.366-.448-.702-.577-.428-.168-1.435.049-2.3.836-.609.562-.9 1.333-1.067 2.071zm2.104.046c.215-.918.461-1.694 1.1-1.694.403 0 .616.372.573 1.007-.035.158-.072.325-.116.514-.063.272-.133.543-.2.814-.069.185-.148.36-.236.476-.164.232-.555.377-.78.377-.064 0-.458 0-.472-.58-.003-.29.057-.587.131-.914zm10.992-3.03l-.078-.089c-.991.201-1.17.233-2.082.356l-.067.067-.01.043-.004-.016c-.678 1.564-.658 1.227-1.21 2.458l-.006-.151-.139-2.668-.086-.089c-1.04.201-1.064.233-2.023.356l-.075.067c-.01.032-.01.067-.017.105l.007.013c.12.613.09.476.211 1.443.056.474.13.95.187 1.42.095.783.148 1.169.263 2.365-.648 1.069-.801 1.473-1.425 2.41l.004.01-.439.694c-.05.073-.096.123-.16.144-.07.035-.16.041-.287.041h-.243l-.362 1.202 1.24.022c.73-.003 1.187-.344 1.434-.801l.78-1.336h-.013l.082-.094c.525-1.13 4.518-7.972 4.518-7.972zM46.015 29.993h-.526l1.948-6.438h.646l.206-.664.02.738c-.025.456.334.86 1.277.793h1.09l.376-1.24h-.41c-.236 0-.345-.06-.332-.187l-.02-.75h-2.02v.004c-.652.013-2.602.062-2.997.167-.478.123-.981.485-.981.485l.198-.664H42.6l-.393 1.318-1.975 6.537h-.383l-.375 1.23h3.762l-.126.411h1.854l.123-.41h.52l.408-1.33zm-1.544-5.13c-.302.084-.865.337-.865.337l.5-1.645h1.501l-.362 1.199s-.463.027-.774.109zm.03 2.35s-.472.06-.783.13c-.305.093-.878.384-.878.384l.517-1.712h1.508l-.365 1.199zm-.842 2.796h-1.505l.436-1.446h1.501l-.432 1.446zm3.626-3.994h2.17l-.312 1.009h-2.199l-.33 1.103h1.924l-1.457 2.05c-.102.15-.193.204-.295.246-.102.052-.236.113-.39.113h-.534l-.367 1.208h1.396c.726 0 1.154-.33 1.471-.763l1-1.366.214 1.387c.045.26.232.412.359.471.14.07.284.19.488.208.219.01.377.017.482.017h.686l.412-1.352h-.27c-.156 0-.424-.026-.47-.075-.045-.059-.045-.15-.07-.288l-.217-1.39h-.891l.39-.466h2.196l.337-1.103h-2.032l.317-1.01h2.026l.375-1.244h-6.04l-.369 1.245zm-18.33 4.275l.506-1.684h2.082l.38-1.252H29.84l.318-1.037h2.036l.378-1.212h-5.096l-.369 1.212h1.158l-.31 1.037h-1.16l-.385 1.273h1.158l-.676 2.228c-.09.295.043.407.128.544.087.134.175.222.373.272.204.046.344.073.534.073h2.347l.418-1.387-1.04.142c-.201 0-.758-.024-.697-.21zm.239-8.06l-.528.952c-.113.208-.214.337-.306.397-.08.05-.24.071-.471.071h-.276l-.368 1.219h.915c.44 0 .777-.161.938-.242.173-.092.219-.04.353-.168l.308-.268h2.855l.379-1.269h-2.09l.365-.693h-2.074zm4.214 8.084c-.048-.07-.013-.193.061-.45l.78-2.58h2.776c.404-.006.697-.011.887-.025.204-.021.425-.094.667-.224.25-.137.378-.282.485-.447.12-.166.314-.528.48-1.085l.98-3.266-2.88.017s-.887.13-1.277.275c-.394.16-.957.61-.957.61l.26-.895h-1.78L31.4 30.5c-.09.32-.148.553-.162.693-.005.15.19.3.316.412.15.113.37.094.581.113.222.016.538.027.975.027h1.367l.42-1.416-1.224.115c-.13 0-.225-.07-.265-.129zm1.345-4.773h2.915l-.185.58c-.026.014-.089-.029-.385.006h-2.525l.18-.586zm.584-1.947h2.94l-.212.7s-1.385-.015-1.607.026c-.977.17-1.547.69-1.547.69l.426-1.416zm2.211 4.47c-.024.088-.062.14-.116.18-.059.038-.155.052-.297.052h-.416l.025-.707h-1.728l-.07 3.456c-.003.25.021.393.204.509.182.144.745.163 1.502.163h1.083l.39-1.294-.942.052-.313.018c-.043-.018-.084-.035-.13-.08-.04-.04-.106-.016-.095-.265l.007-.886.989-.04c.534 0 .762-.174.956-.34.186-.158.247-.34.317-.586l.166-.784H37.72l-.173.553z"/>
        </g>
    </g>
</svg>
