<svg xmlns="http://www.w3.org/2000/svg" width="64" height="40" viewBox="0 0 64 40">
    <g fill="none" fill-rule="evenodd">
        <path d="M0 0H64V40H0z"/>
        <path fill="#1A1F71" d="M48.637 15.31l-.098-.021c-.646 1.823-1.33 3.634-1.959 5.509h2.782c.395 0 .41-.032.329-.417-.204-.96-.396-1.923-.595-2.884-.151-.73-.306-1.459-.46-2.188m5.705 10.722h-1.018c-.718 0-1.436-.014-2.153.007-.266.008-.348-.108-.391-.334-.105-.55-.23-1.096-.329-1.647-.033-.183-.104-.245-.288-.244-1.488.006-2.976-.001-4.464.014-.104.001-.26.129-.301.233-.223.57-.407 1.155-.63 1.725-.041.106-.199.234-.305.235-1.181.017-2.363.01-3.545.009-.04 0-.081-.014-.176-.032.17-.422.331-.827.498-1.23l3.76-9.07c.464-1.121.928-2.243 1.39-3.366.323-.782.91-1.166 1.747-1.17.928-.006 1.857.013 2.785-.008.286-.007.385.104.436.357.295 1.47.596 2.938.9 4.406.398 1.924.803 3.846 1.2 5.77.294 1.425.58 2.852.884 4.345M7.218 11.552c-.008-.332.15-.4.434-.398 1.984.012 3.968.005 5.952.006 1.06 0 1.729.588 1.92 1.64.329 1.818.678 3.633 1.016 5.45.16.86.313 1.723.472 2.585.023.12.063.237.16.36.1-.249.202-.496.3-.745 1.172-2.998 2.344-5.997 3.514-8.996.063-.16.11-.3.34-.298 1.181.01 2.363.006 3.545.008.04 0 .08.013.16.027-.046.139-.078.267-.128.387l-4.907 11.817c-.328.79-.654 1.58-.97 2.374-.078.194-.182.27-.398.267-1.13-.012-2.259-.013-3.387 0-.273.003-.365-.083-.433-.357-.482-1.957-.992-3.908-1.493-5.86-.485-1.892-.984-3.78-1.448-5.677-.167-.68-.504-1.19-1.164-1.426-1.04-.372-2.09-.712-3.137-1.063-.118-.04-.239-.07-.348-.101M41.566 11.571l-.641 3.036c-.673-.185-1.291-.403-1.928-.519-.895-.164-1.807-.239-2.672.166-.978.458-1.068 1.39-.169 1.993.63.421 1.31.768 1.97 1.142.88.5 1.736 1.041 2.245 1.949.799 1.425.633 2.861-.143 4.228-.732 1.287-1.936 1.967-3.32 2.358-1.78.504-3.568.427-5.352.028-.42-.094-.83-.233-1.245-.35-.22-.062-.281-.165-.221-.416.21-.884.38-1.776.568-2.665.015-.07.043-.137.075-.235.334.138.65.273.969.399 1.152.45 2.345.631 3.566.425.41-.07.834-.252 1.176-.491.607-.425.655-1.247.098-1.732-.416-.363-.906-.653-1.393-.918-.845-.459-1.686-.909-2.399-1.575-1.413-1.322-1.42-3.24-.584-4.71.763-1.341 1.988-2.066 3.427-2.468 1.893-.53 4.223-.391 5.973.355M30.508 11.216c-.232 1.104-.459 2.2-.69 3.295-.341 1.61-.686 3.221-1.028 4.832-.368 1.736-.735 3.47-1.1 5.206-.086.403-.167.806-.25 1.21-.03.147-.053.278-.266.277-1.13-.01-2.259-.006-3.388-.009-.04 0-.08-.017-.167-.036.1-.488.194-.97.295-1.451.4-1.891.8-3.782 1.202-5.673l1.275-6.012c.102-.485.194-.974.313-1.455.023-.093.15-.227.229-.228 1.16-.013 2.321-.007 3.482-.003.018 0 .036.018.093.047M0 6.046L63.88 6.046 63.88 0 0 0z"/>
        <path fill="#F7B600" d="M0 39.845L63.88 39.845 63.88 33.798 0 33.798z"/>
    </g>
</svg>
