<svg xmlns="http://www.w3.org/2000/svg" width="116" height="40" viewBox="0 0 116 40">
    <g fill="none" fill-rule="evenodd">
        <path fill="#FFF" fill-opacity="0" d="M0 0H116V40H0z"/>
        <path fill="#1AAD19" d="M16.884 23.707l-.128.073c-.158.08-.336.126-.526.126-.439 0-.82-.24-1.02-.596l-.076-.166-3.193-6.975c-.035-.076-.056-.161-.056-.245 0-.321.262-.581.585-.581.13 0 .252.043.35.115l3.767 2.67c.275.18.604.284.958.284.21 0 .412-.038.6-.107l17.717-7.85c-3.176-3.725-8.406-6.16-14.325-6.16C11.85 4.295 4 10.808 4 18.843c0 4.383 2.362 8.33 6.06 10.996.296.21.49.557.49.948 0 .13-.028.248-.062.37l-.79 2.936c-.036.137-.094.28-.094.425 0 .321.262.582.585.582.127 0 .23-.047.338-.109l3.839-2.206c.289-.166.594-.269.931-.269.18 0 .353.028.515.077 1.792.513 3.724.798 5.725.798 9.685 0 17.537-6.513 17.537-14.548 0-2.434-.724-4.726-1.997-6.742L16.884 23.707z"/>
        <path fill="#4D4D4D" d="M87.494 27.537l.03.074 1.128 2.798c.073.19.149.403.216.61.043-.126.092-.267.144-.413l.083-.222 1.076-2.847h.714l-.046.111-1.31 3.241c-.548 1.403-.91 2.16-1.482 2.656-.292.245-.558.375-.696.432l-.05.02-.065.025-.315-.542.121-.045c.15-.055.442-.188.712-.446.195-.195.475-.535.689-1.04.021-.053.045-.113.045-.141 0-.001 0-.02-.024-.086l-.022-.058-1.659-4.127h.711zm-15.924-.098c.994 0 1.544.56 1.6 1.62l.004.182v1.675c0 .243.005.497.03.748l.031.25.022.136h-.639l-.046-.453c-.222.233-.645.551-1.307.551-.948 0-1.38-.671-1.38-1.294 0-.413.14-.76.417-1.034.437-.43 1.179-.65 2.207-.653 0-.418-.094-.714-.284-.902-.132-.13-.314-.207-.542-.229l-.143-.006h-.015c-.307 0-.602.07-.848.199l-.14.084-.074.049-.288-.498.068-.041c.367-.24.863-.384 1.327-.384zm13.115 0c.994 0 1.544.56 1.6 1.62l.004.182v1.675c0 .243.004.497.029.748l.032.25.023.136h-.64l-.046-.454c-.221.234-.645.552-1.307.552-.948 0-1.38-.67-1.38-1.294 0-.413.14-.761.417-1.034.437-.43 1.179-.65 2.206-.653 0-.418-.093-.714-.283-.902-.132-.13-.314-.207-.542-.229l-.142-.006h-.016c-.287 0-.566.062-.803.177l-.137.075-.072.044-.285-.492.067-.042c.361-.22.838-.353 1.275-.353zm-9.597-.863v1.002h1.226v.541h-1.226v2.664c0 .536.152.765.509.765.093 0 .178-.005.255-.015l.107-.018.058-.012.28.481-.107.047c-.178.078-.396.117-.648.117-.362 0-.648-.12-.827-.348-.172-.195-.268-.495-.29-.911l-.004-.186v-2.584h-.725v-.54h.725v-1.003h.667zm-17.51.863c.657 0 1.15.267 1.465.794.303.507.326 1.09.326 1.258 0 .081 0 .139-.006.196l-.014.087-.02.092h-3.145c.038 1.064.59 1.673 1.519 1.673.504 0 .802-.084 1.02-.175l.078-.035.067-.03.288.495-.097.054c-.158.087-.612.291-1.41.291-1.27 0-2.123-.91-2.123-2.265 0-1.457.824-2.435 2.051-2.435zm5.646-1.73c.736 0 1.18.155 1.373.243l.08.04.092.05-.306.529-.068-.032c-.315-.148-.728-.229-1.162-.229-1.569 0-2.505.996-2.505 2.664 0 1.606.91 2.565 2.433 2.565.393 0 .798-.069 1.12-.186l.153-.063.068-.03.298.514-.1.05c-.306.152-.909.315-1.682.315-1.372 0-2.974-.831-2.974-3.174 0-1.948 1.278-3.255 3.18-3.255zm-14.599.099l.017.06.979 3.786c.108.429.213.837.299 1.204.09-.371.21-.784.348-1.235l.105-.346 1.01-3.47h.591l.016.06.903 3.388c.136.503.287 1.074.396 1.584.065-.26.137-.522.216-.804l.082-.289.134-.475 1.02-3.463h.685l-.031.104-1.848 6.138h-.591l-.015-.06-.912-3.486c-.125-.456-.23-.855-.313-1.22l-.058-.268-.053.212c-.076.291-.169.614-.281.989l-.089.291-1.054 3.542h-.583l-.015-.06-1.64-6.182h.682zm32.038-.044c.733 0 1.312.187 1.676.54.328.307.502.742.502 1.261 0 .532-.148.95-.451 1.282-.402.456-1.062.707-1.86.707-.18 0-.336-.004-.478-.02l-.139-.02v2.536h-.666v-6.152l.098-.017c.433-.078.877-.117 1.318-.117zm-14.48-.054v2.351c.122-.146.267-.268.423-.358.27-.172.591-.264.927-.264.26 0 1.515.085 1.608 1.722l.005.196v2.693h-.665v-2.648c0-.506-.139-1.354-1.064-1.354-.513 0-1.001.364-1.188.884-.03.09-.041.172-.045.276l-.002.113v2.729h-.665v-6.34h.665zm19.44 4.047h-.082c-.782 0-1.326.141-1.616.42-.16.156-.241.36-.241.606 0 .57.4.774.741.774.659 0 1.03-.402 1.16-.777.021-.053.031-.108.035-.156l.003-.064v-.803zm-13.116 0h-.08c-.784 0-1.327.141-1.618.42-.16.156-.24.36-.24.606 0 .57.399.774.741.774.66 0 1.032-.401 1.16-.777.021-.053.031-.108.036-.156l.003-.064-.002-.803zM57.524 28.03c-.492 0-1.062.293-1.268 1.095l-.037.168h2.465c-.011-.252-.077-.674-.364-.965-.196-.198-.463-.298-.796-.298zm23.122-1.675c-.307 0-.53.021-.67.041l-.063.01v2.498c.204.052.454.059.652.059 1.023 0 1.61-.493 1.61-1.353 0-.798-.557-1.255-1.53-1.255zM67.523 7.858l.791.456c-.302.978-.66 1.946-1.062 2.864l-.246.545v10.964h-.854V13.48c-.413.752-.846 1.476-1.267 2.12l-.251.377-.472-.807c1.436-2.083 2.58-4.572 3.361-7.312zm32.497 0l.79.456c-.301.978-.66 1.946-1.061 2.864l-.246.545v10.964h-.855V13.48c-.412.752-.846 1.476-1.267 2.12l-.25.377-.473-.807c1.437-2.083 2.581-4.572 3.362-7.312zM49.617 11.96l.767.44-.009.02c-.26.612-.534 1.189-.817 1.72l-.214.39v8.157h-.793v-6.855c-.29.393-.591.78-.899 1.154l-.464.554-.023.027-.017-.03-.44-.759.012-.013c1.082-1.233 1.99-2.687 2.698-4.326l.188-.452.01-.027zm39.31-4.186V9.91h6.73v.842h-6.73v2.805h3.607l.704.404c-.007.03-.046.16-.128.365-.344.866-1.449 3.102-4.085 5.137 1.357.906 3.263 1.735 5.479 2.314l.447.113-.42.774c-2.517-.587-4.682-1.584-6.202-2.694-1.466 1.006-3.337 1.927-5.72 2.558l-.483.123-.5-.862c2.737-.65 4.642-1.481 6.031-2.34-2.58-2.118-3.667-4.465-3.93-5.123l-.022-.056-.018-.046V13.556h4.375V10.75h-6.73v-.842h6.73V7.774h.865zm-29.574.127c-.101.783-.373 1.679-.64 2.496l-.133.401h3.52v.79h-.868c-.208 3.094-.769 5.492-1.668 7.128.446.851 1.22 1.838 2.195 2.805l.272.263.014.013-.01.018-.47.808-.022-.023c-1.03-1.04-1.916-2.164-2.44-3.093-.426.791-1.207 1.732-2.32 2.8l-.264.248-.022.022-.017-.027-.457-.789.016-.013c1.185-1.052 2.081-2.093 2.664-3.096-.607-1.252-1.04-2.964-1.288-5.093-.064.121-.142.266-.236.433l-.1.173-.367.732-.5-.864c.944-1.535 1.692-3.454 2.206-5.656l.107-.477.828.001zm49.555.023v3.648h2.299v.85h-2.299v8.113c-.015.597-.181 1.058-.494 1.37-.359.357-.817.536-1.656.536l-.585.003h-.162v-.851l.495.002c.95 0 1.48-.357 1.539-1.115l.005-.147V12.42h-7.056v-.849h7.056V7.924h.858zm-53.555 8.794v2.976l1.217-1.04.015.026.383.661-.016.013c-.932.816-1.624 1.41-2.061 1.763l-.104.084-.023.018-.487-.84.01-.013c.19-.264.234-.443.263-.924l.01-.172V17.51h-2.428v.714c.078 1.59-.404 2.868-1.43 3.802l-.187.161-.023.019-.015-.026-.44-.762.017-.013c.875-.635 1.29-1.718 1.237-3.218l-.014-.269v-1.199h4.076zm22.703.709v4.766h-8.398v-4.766h8.398zm-.856.79h-6.686v3.185H77.2v-3.186zm15.028-3.892H84.54c.354.838 1.393 2.835 3.814 4.658.992-.706 1.683-1.412 2.231-2.036.993-1.127 1.452-2.112 1.642-2.622zm11.398.315c.69 1.377 1.26 2.519 1.7 3.41l.116.236-.849.493c-.567-1.28-1.09-2.398-1.566-3.343l-.176-.346.775-.45zm-43.188-3.052h-2.125c-.12.24-.22.48-.3.717.243 2.257.631 4.08 1.153 5.422.68-1.5 1.109-3.565 1.272-6.139zm17.841 3.31v.852h-8.844v-.851h8.844zm-22.369-.523v.79h-4.82v-.79h4.82zm22.37-1.943v.79h-8.845v-.79h8.844zM53.99 8.086v3.947h1.499V9.258h.793v3.565h-5.439V9.258h.793v2.775h1.56V8.086h.794zm-4.264-.162l.74.426c-.71 1.448-1.643 2.797-2.731 3.952l-.332.34-.478-.825c1.077-1.006 2.036-2.34 2.8-3.893zm24.02-.124l.01.025c.081.18.25.532.413.874.154.32.3.624.376.794l.028.064.01.02-.02.012-.55.315h5.196v.851H68.567v-.851h5.2c-.006-.035-.026-.085-.056-.149-.163-.352-.34-.712-.537-1.093l-.205-.388-.011-.021.788-.453z"/>
    </g>
</svg>
